# xmcd
#
# Track frame offsets:
#	150
#	14327
#	29097
#	45445
#	65977
#	86032
#	97565
#	120145
#	133237
#	154332
#	167622
#	177675
#	190417
#	204750
#	220572
#	233095
#
# Disc length: 3215 seconds
#
# Revision: 1
# Processed by: cddbd v1.5.2PL0 Copyright (c) Steve Scherf et al.
# Submitted via: audiograbber 1.83.01
#
DISCID=d50c8d10
DTITLE=Bruce Lewis - Walk Down That Lonesome Fretboard
DYEAR=1997
DGENRE=Blues
TTITLE0=On My Way Back Home
TTITLE1=Good Morning Lil' Schoolgirl
TTITLE2=Nine Pound Hammer
TTITLE3=Death Defying Love
TTITLE4=Dyin' Time Blues
TTITLE5=Ways of the World
TTITLE6=Rockin' Chair
TTITLE7=Angry Woman
TTITLE8=That's How I Learned to Sing the Blues
TTITLE9=Do It If You Wanna
TTITLE10=Karma
TTITLE11=Cryin' Holy
TTITLE12=Ol' Crossroads
TTITLE13=Art Museum
TTITLE14=Walk Down That Lonesome Road
TTITLE15=Danube River Roll
EXTD=
EXTT0=
EXTT1=
EXTT2=
EXTT3=
EXTT4=
EXTT5=
EXTT6=
EXTT7=
EXTT8=
EXTT9=
EXTT10=
EXTT11=
EXTT12=
EXTT13=
EXTT14=
EXTT15=
PLAYORDER=
